<svg xmlns="http://www.w3.org/2000/svg" width="24" height="24" viewBox="0 0 24 24">
  <path fill="#0074E8" fill-rule="evenodd" d="M16.9056439,18.3198574 L5.68014258,7.09435615 C4.62708161,8.44903985 4,10.1512885 4,12 C4,16.418278 7.581722,20 12,20 C13.8487115,20 15.5509601,19.3729184 16.9056439,18.3198574 L16.9056439,18.3198574 Z M18.3198574,16.9056439 C19.3729184,15.5509601 20,13.8487115 20,12 C20,7.581722 16.418278,4 12,4 C10.1512885,4 8.44903985,4.62708161 7.09435615,5.68014258 L18.3198574,16.9056439 L18.3198574,16.9056439 Z M12,22 C6.4771525,22 2,17.5228475 2,12 C2,6.4771525 6.4771525,2 12,2 C17.5228475,2 22,6.4771525 22,12 C22,17.5228475 17.5228475,22 12,22 Z"/>
</svg>
