<svg xmlns="http://www.w3.org/2000/svg" width="24" height="24" viewBox="0 0 24 24">
  <path fill="#0074E8" fill-rule="evenodd" d="M5,5 L19,5 L19,17.75 C19,20.0972102 17.209139,22 15,22 L9,22 C6.790861,22 5,20.0972102 5,17.75 L5,5 Z M7,7 L7,17.8333333 C7,19.0299503 7.8954305,20 9,20 L15,20 C16.1045695,20 17,19.0299503 17,17.8333333 L17,7 L7,7 Z M5,2 L19,2 C19.5522847,2 20,2.44771525 20,3 C20,3.55228475 19.5522847,4 19,4 L5,4 C4.44771525,4 4,3.55228475 4,3 C4,2.44771525 4.44771525,2 5,2 Z M14,9 C14.5522847,9 15,9.44771525 15,10 L15,17 C15,17.5522847 14.5522847,18 14,18 C13.4477153,18 13,17.5522847 13,17 L13,10 C13,9.44771525 13.4477153,9 14,9 Z M10,9 C10.5522847,9 11,9.44771525 11,10 L11,17 C11,17.5522847 10.5522847,18 10,18 C9.44771525,18 9,17.5522847 9,17 L9,10 C9,9.44771525 9.44771525,9 10,9 Z"/>
</svg>
