<svg xmlns="http://www.w3.org/2000/svg" width="24" height="24" viewBox="0 0 24 24">
  <path fill="#0074E8" fill-rule="evenodd" d="M16.707,11.293 C16.316,10.902 15.684,10.902 15.293,11.293 L13,13.586 L13,4 C13,3.447 12.552,3 12,3 C11.448,3 11,3.447 11,4 L11,13.586 L8.707,11.293 C8.316,10.902 7.684,10.902 7.293,11.293 C6.902,11.684 6.902,12.316 7.293,12.707 L11.292,16.706 C11.385,16.799 11.495,16.872 11.618,16.923 C11.74,16.974 11.87,17 12,17 C12.13,17 12.26,16.974 12.382,16.923 C12.505,16.872 12.615,16.799 12.707,16.706 L16.707,12.707 C17.098,12.316 17.098,11.684 16.707,11.293 M17,21 L7,21 C6.448,21 6,20.553 6,20 C6,19.447 6.448,19 7,19 L17,19 C17.552,19 18,19.447 18,20 C18,20.553 17.552,21 17,21"/>
</svg>
