<svg xmlns="http://www.w3.org/2000/svg" width="24" height="24" viewBox="0 0 24 24">
  <path fill="#0074E8" fill-rule="evenodd" d="M14.793,5.793 L18.207,9.207 L7.707,19.707 C7.597,19.816 7.463,19.899 7.316,19.948 L4.316,20.948 C4.212,20.983 4.106,21 4,21 C3.739,21 3.483,20.897 3.293,20.707 C3.025,20.439 2.932,20.043 3.051,19.684 L4.051,16.684 C4.101,16.536 4.183,16.402 4.293,16.293 L14.793,5.793 Z M15.3785729,9.207 L14.792998,8.62142514 L5.87357827,17.5408199 L5.58115144,18.4180977 L6.46063697,18.1249359 L15.3785729,9.207 Z M20.707,5.293 C21.098,5.684 21.098,6.316 20.707,6.707 L19.207,8.207 L15.793,4.793 L17.293,3.293 C17.684,2.902 18.316,2.902 18.707,3.293 L20.707,5.293 Z"/>
</svg>
