<svg xmlns="http://www.w3.org/2000/svg" width="24" height="24" viewBox="0 0 24 24">
  <path fill="#ffffff" fill-rule="evenodd" d="M18,4 C20.209139,4 22,5.790861 22,8 L22,16 C22,18.209139 20.209139,20 18,20 L6,20 C3.790861,20 2,18.209139 2,16 L2,8 C2,5.790861 3.790861,4 6,4 L18,4 Z M20.0002499,8.55457188 C17.4069848,11.4917398 14.7430122,13 12,13 C9.25729409,13 6.59361014,11.4920766 4.00061883,8.5555558 L4,16 C4,17.1045695 4.8954305,18 6,18 L18,18 C19.1045695,18 20,17.1045695 20,16 Z M18,6 L6,6 C5.54989233,6 5.13451282,6.14868892 4.80030003,6.39962821 C7.28818594,9.50156582 9.69171537,11 12,11 C14.3143352,11 16.7244151,9.49370003 19.2191312,6.37530495 L19.1997,6.39962821 C18.8654872,6.14868892 18.4501077,6 18,6 Z"/>
</svg>
