<svg xmlns="http://www.w3.org/2000/svg" width="24" height="24" viewBox="0 0 24 24">
  <path fill="#344055" fill-rule="evenodd" d="M12,20 C16.418278,20 20,16.418278 20,12 C20,7.581722 16.418278,4 12,4 C7.581722,4 4,7.581722 4,12 C4,16.418278 7.581722,20 12,20 Z M12,22 C6.4771525,22 2,17.5228475 2,12 C2,6.4771525 6.4771525,2 12,2 C17.5228475,2 22,6.4771525 22,12 C22,17.5228475 17.5228475,22 12,22 Z M15.707,14.293 C15.902,14.488 16,14.744 16,15 C16,15.256 15.902,15.512 15.707,15.707 C15.512,15.902 15.256,16 15,16 C14.744,16 14.488,15.902 14.293,15.707 L12,13.414 L9.707,15.707 C9.512,15.902 9.256,16 9,16 C8.744,16 8.488,15.902 8.293,15.707 C8.098,15.512 8,15.256 8,15 C8,14.744 8.098,14.488 8.293,14.293 L10.586,12 L8.293,9.707 C8.098,9.512 8,9.256 8,9 C8,8.744 8.098,8.488 8.293,8.293 C8.684,7.902 9.316,7.902 9.707,8.293 L12,10.586 L14.293,8.293 C14.684,7.902 15.316,7.902 15.707,8.293 C15.902,8.488 16,8.744 16,9 C16,9.256 15.902,9.512 15.707,9.707 L13.414,12 L15.707,14.293 Z"/>
</svg>
