<svg xmlns="http://www.w3.org/2000/svg" width="24" height="24" viewBox="0 0 24 24">
  <path fill="#ffffff" fill-rule="evenodd" d="M12,20 C16.418278,20 20,16.418278 20,12 C20,7.581722 16.418278,4 12,4 C7.581722,4 4,7.581722 4,12 C4,16.418278 7.581722,20 12,20 Z M12,22 C6.4771525,22 2,17.5228475 2,12 C2,6.4771525 6.4771525,2 12,2 C17.5228475,2 22,6.4771525 22,12 C22,17.5228475 17.5228475,22 12,22 Z M13.2650159,12.4123463 C13.0203902,12.5925147 12.9443482,12.7418493 12.9443482,13.1133333 C12.9443482,13.6034931 12.528491,14 12.0144105,14 C11.5008163,14 11.0844728,13.6033036 11.0844728,13.1133333 C11.0844728,11.9323888 11.5185902,11.382027 12.5268796,10.7422816 C13.0672051,10.3988259 13.1401246,10.3047229 13.1401246,9.84666667 C13.1401246,9.14412205 12.6727597,8.77672356 12.0198923,8.77333333 C11.3785581,8.77333333 10.8680359,9.13156209 10.8599027,9.85640792 C10.8543232,10.3422846 10.4396017,10.7333333 9.92997961,10.7333333 C9.40684278,10.7279964 8.99448128,10.3268714 9,9.83698841 C9.01919508,8.12813269 10.3572399,7 12.0109844,7 C13.6747335,7.00793692 15,8.14338268 15,9.84666667 C15,11.0274093 14.5664164,11.5772847 13.5582498,12.2177366 C13.3954398,12.3212263 13.3330584,12.3622326 13.2650159,12.4123463 Z M12,17 C11.448,17 11,16.553 11,16 C11,15.447 11.448,15 12,15 C12.553,15 13,15.447 13,16 C13,16.553 12.553,17 12,17"/>
</svg>
