<?xml version="1.0" encoding="UTF-8"?>
<svg width="24px" height="24px" viewBox="0 0 24 24" version="1.1" xmlns="http://www.w3.org/2000/svg" xmlns:xlink="http://www.w3.org/1999/xlink">
    <title>Icons/Key</title>
    <g id="Icons/Key" stroke="#0074E8" stroke-width="1" fill="none" fill-rule="evenodd">
        <path d="M4.03553465,4.03553211 C6.76920469,1.30186206 11.2013595,1.30186206 13.9350296,4.03553211 C15.5816345,5.68213698 16.2742143,7.997575 15.8762256,10.2206131 L15.8762256,10.2206131 L15.8423131,10.3908714 L21.3198868,15.8701368 C21.6307991,16.1810491 21.8293327,16.5844021 21.8876945,17.0167506 L21.8876945,17.0167506 L21.9040438,17.203633 L22.0142042,19.9309442 C22.0587832,21.0346137 21.2002206,21.9654531 20.096551,22.010032 C19.9093328,22.0175941 19.7219807,21.9988098 19.5399904,21.9542302 L19.5399904,21.9542302 L17.8089758,21.5302083 C16.9793618,21.3269896 16.370363,20.6193445 16.2930327,19.7687111 L16.2930327,19.7687111 L16.2563307,19.3649886 L15.9716091,19.3391048 C15.0101075,19.2516956 14.2483034,18.4898914 14.1608941,17.5283899 L14.1608941,17.5283899 L14.1350103,17.2436683 L13.3809408,17.1751165 C12.9149892,17.1327572 12.4786349,16.9283798 12.1479951,16.59774 L12.1479951,16.59774 L11.1824794,15.6319468 L11.1100683,15.6566241 C8.73597717,16.4124501 6.09749731,15.8547361 4.2263248,14.1188036 L4.2263248,14.1188036 L4.03553465,13.935027 C1.30186461,11.201357 1.30186461,6.76920215 4.03553465,4.03553211 Z M12.520816,5.44974567 C10.5681946,3.49712421 7.40236967,3.49712421 5.44974821,5.44974567 C3.49712675,7.40236713 3.49712675,10.568192 5.44974821,12.5208135 C6.92684646,13.9979117 9.14668395,14.3894254 11.0228947,13.5530278 L11.0228947,13.5530278 L11.6507545,13.2731336 L13.5620123,15.1833301 L14.3160818,15.2518818 C15.2775834,15.3392911 16.0393875,16.1010952 16.1267968,17.0625968 L16.1267968,17.0625968 L16.1526805,17.3473184 L16.4374022,17.3732022 C17.3989037,17.4606114 18.1607079,18.2224156 18.2481171,19.1839171 L18.2481171,19.1839171 L18.2848191,19.5876396 L20.0158337,20.0116615 L19.9056733,17.2843504 L13.6078987,10.9862709 L13.7776018,10.4153859 C14.2971386,8.66765267 13.8332317,6.76216135 12.520816,5.44974567 Z M8,6 C9.1045695,6 10,6.8954305 10,8 C10,9.1045695 9.1045695,10 8,10 C6.8954305,10 6,9.1045695 6,8 C6,6.8954305 6.8954305,6 8,6 Z" id="🎨-Icon-Colour" fill="#344055"></path>
    </g>
</svg>