<?xml version="1.0" encoding="utf-8"?>
<!-- Generator: Adobe Illustrator 23.0.6, SVG Export Plug-In . SVG Version: 6.00 Build 0)  -->
<svg version="1.1" id="Layer_1" xmlns="http://www.w3.org/2000/svg" xmlns:xlink="http://www.w3.org/1999/xlink" x="0px" y="0px"
	 viewBox="0 0 388.6 323.6" style="enable-background:new 0 0 388.6 323.6;" xml:space="preserve">
<style type="text/css">
	.st0{opacity:0.7;fill-rule:evenodd;clip-rule:evenodd;fill:#EDEDED;enable-background:new    ;}
	.st1{fill:#E2BFAF;}
	.st2{fill-rule:evenodd;clip-rule:evenodd;fill:#EDEDED;}
	.st3{fill:#828282;}
	.st4{fill:#F7D8C6;}
	.st5{fill:#FFD301;}
	.st6{fill:#D5D0FA;}
	.st7{fill:#EFEFEF;}
</style>
<title>no-messages-lt</title>
<g>
	<g id="Layer_1-2">
		<g id="Layer_12">
			<path class="st0" d="M385.5,205.6c-6.4,42.1-58.9,29.2-88.5,45.4c1-4.8,6.8-33.2,4.6-51.4c-1.1-9.1-7.8-18.4-15.2-26.2l-0.5-15.3
				c-0.3-9-7.8-16-16.8-15.7c-3.8,0.1-7.4,1.6-10.2,4.1l-0.8,0.7l-1.6,1.4l0.2,0.1L256,149c-1.2,0.4-2.4,0.7-3.7,1.1
				c-1.6,0.4-3.2,0.9-4.9,1.2c-4.8,1.1-9.6,2-13.3,1.8c-5.2-0.2-15-3.4-20.2-3.7c-1.9-0.1-3.2,0.1-3.5,1c-1.8,4.5-0.9,7.6,0,9.2
				c-2.3,3.4-4.7,6.8-7,10.4c-10,0.5-18.8,6.6-22.7,15.7L141.3,321c-17.5-8-19.5-32.1-32.8-45.4c-38.7-38.7-75.9-23.8-78.9-71.4
				c-3.1-47.8,71.4-85.6,96.1-135.9c23.5-48,75.4-49,105.7-39.6s39.9,53.1,70.6,69.5C398.1,149.5,391.6,165.1,385.5,205.6z"/>
			<path class="st1" d="M193,267.1l-5.7,33.4l-93.5-47.2c-5.4-1-10-2.7-12.4-5.1C63.1,230.4,60,192.1,60,192.1s19.5,42.8,24.3,44.4
				C86.4,237.2,119,225,119,225l43.9,23.4l-0.4,0.1L193,267.1z"/>
			<path class="st2" d="M55.5,63.2c-17-9.7-50.2,6.5-54.9,30.2c-3.7,18.7,10.9,39.3,19.2,38.4c8.1-0.9,6.1-21.9,22-30.2
				c11.1-5.8,19.9,0.4,24.7-5.5C72.4,88.8,67,69.7,55.5,63.2z"/>
			<path class="st3" d="M300.4,237.4c-2,1.1,0.8,5.6-1.4,6.6c-31,15-39,15-54,23c-14.7,7.9-36.8,23.6-56.3,42l10-29.2l0,0l10.8-26.5
				c13.5,4.9,28.2-1.4,34.8-18.1l0,0c0.1-0.3,0.3-0.7,0.4-1c1.2-3.3,2.1-12.8,3.5-22.3l0,0c-0.2-0.5-0.5-1-0.8-1.5s-0.5-1-0.8-1.5
				l-0.6-1.1l-0.4-0.7c-0.5-0.9-0.9-1.7-1.4-2.6c-0.3-0.5-0.5-0.9-0.8-1.4c-0.2-0.3-0.3-0.5-0.5-0.8s-0.3-0.5-0.5-0.8
				c-1.6-2.6-3.1-4.9-4.7-7.1s-3-4-4.4-5.8c-0.2-0.3-0.4-0.5-0.6-0.8l-1.2-1.5c-2.7-3.2-5.2-5.7-7.1-7.6l0,0l-0.1,0.1
				c-0.4-0.5-0.9-1-1.4-1.5c-2.2-2.2-4.8-3.9-7.6-5.2c-0.7-0.3-1.4-0.6-2.1-0.8c-2.7-1-5.6-1.5-8.6-1.5h-1.3c2.3-3.6,4.7-7,7-10.4
				c-0.9-1.6-1.9-4.7,0-9.2c0.4-0.9,1.6-1.1,3.5-1c5.3,0.3,15,3.5,20.2,3.7c3.6,0.1,8.5-0.7,13.3-1.8c1.7-0.4,3.3-0.8,4.9-1.2
				c1.3-0.4,2.5-0.7,3.7-1.1l0.6-0.2l-0.2-0.1l1.6-1.4l0.8-0.7c6.7-6,17-5.3,23,1.4c2.5,2.8,4,6.5,4.1,10.2l0.5,15.3
				c7.5,7.8,14.1,17.1,15.2,26.2C303.2,212.2,302.8,225,300.4,237.4z"/>
			<path class="st4" d="M248.2,211.9L248.2,211.9c-1.4,9.6-2.3,19.1-3.5,22.3c-0.1,0.3-0.2,0.7-0.4,1l0,0
				c-6.6,16.7-21.3,22.9-34.8,18.1l-10.8,26.5l0,0l-10,29.2c-1.1,1-2.1,2-3.2,2.9c-6.5,5.5-13.7,9.5-22,10.9
				c-9.5,1.6-16.6,0.6-22.2-1.9l39.4-135.1c3.9-9.2,12.7-15.3,22.7-15.8h1.3c2.9,0,5.8,0.5,8.6,1.5c0.7,0.2,1.4,0.5,2.1,0.8
				c2.8,1.3,5.4,3,7.6,5.2c0.5,0.5,1,1,1.4,1.5l0.1-0.1l0,0c1.9,1.9,4.4,4.4,7.1,7.6l1.2,1.5c0.2,0.3,0.4,0.5,0.6,0.8
				c1.4,1.8,2.9,3.7,4.4,5.8s3.1,4.6,4.7,7.1c0.2,0.3,0.3,0.5,0.5,0.8s0.3,0.5,0.5,0.8c0.3,0.4,0.5,0.9,0.8,1.4
				c0.5,0.8,1,1.7,1.4,2.6l0.4,0.7c0.2,0.4,0.4,0.7,0.6,1.1s0.5,1,0.8,1.5S247.9,211.4,248.2,211.9z"/>
			<path class="st4" d="M247.4,151.3c-4.8,1.1-9.6,2-13.3,1.8c-5.2-0.2-15-3.4-20.2-3.7l0.1-2.3c-22.4,1.5-42.9-12.7-49.2-34.3
				L154,76c-0.9-3-1.5-6-1.7-9.1c10.1,39.2,34,61.5,62.1,71.3c4.7,1.6,9.5,2.9,14.4,3.9c0.8,0.2,1.6,0.3,2.4,0.5
				c8,1.8,13.2,4.5,16.1,8.2L247.4,151.3z"/>
			<path class="st5" d="M300.2,287.9l-0.3-0.3c-18.6-18.6-42.2-35.4-55.6-52.4l0,0c-9.8-12.3-14.2-24.8-7.5-38.2
				c0.4-0.8,0.8-1.6,1.2-2.4c1.5-3.1,3-6.1,4.3-8.9c3.7-8.1,6.4-14.9,7.4-20.6s0.4-10.2-2.3-13.9l-0.3-0.4
				c-2.9-3.7-8.1-6.4-16.1-8.2c-0.8-0.2-1.6-0.4-2.4-0.5c-4.9-1-9.7-2.3-14.4-3.9c-28.1-9.8-52-32.2-62.1-71.3
				c-0.9-3.3-1.6-6.8-2.3-10.4c-3-16.8,9.9-32.6,15.6-37.9c23.5-21.5,68.4-27,108.7-3.2c33,19.5,34,96.5,14.8,129.5
				c-1.4,2.2-2.3,4.7-2.8,7.3c-0.8,4.7,0.6,8.9,3.2,13c8,12.6,27.5,24.3,32.5,45.6C332,254.5,311.3,297.8,300.2,287.9z"/>
			<path class="st6" d="M249.7,165.2l6.7,1.5c8.5,1.9,17.4,2,25.9,0.1l7.2-1.6c-2.6-4.1-4-8.3-3.2-13l-4.1,0.9
				c-8.5,1.9-17.4,1.8-25.9-0.1l-9.2-2.1C250,154.6,250.7,159.3,249.7,165.2z"/>
			<path d="M85.7,238.5l38.2-12.5c1.3-0.4,2-1.9,1.6-3.2l0,0c0-0.1-0.1-0.2-0.2-0.4l-38.6-75.3c-0.6-1.1-1.8-1.6-3-1.2l-38.2,12.5
				c-1.3,0.5-2,1.9-1.6,3.2l0,0c0,0.1,0.1,0.2,0.1,0.3l38.7,75.3C83.2,238.3,84.5,238.9,85.7,238.5z"/>
			<path class="st7" d="M83.8,225.9l31.8-10.2c1.1-0.4,1.7-1.6,1.3-2.7c0-0.1-0.1-0.2-0.1-0.3l-30.1-58.5c-0.5-0.9-1.5-1.4-2.6-1.1
				l-31.8,10.2c-1.1,0.4-1.7,1.6-1.3,2.7c0,0.1,0.1,0.2,0.1,0.3l30.1,58.5C81.7,225.8,82.8,226.2,83.8,225.9z"/>
			<path class="st3" d="M85.8,196.4c-1.3,0.4-3-0.6-3.9-2l-2.5-3.8c-1.2-1.8-1-3.5,0.4-4.2c3.6-1.9,4.5-4,3-6.9l-0.1-0.1
				c-1.4-2.6-3.6-3.7-6.1-2.9c-1.9,0.7-3.4,2.2-4.1,4.2c-0.3,0.8-1,1.4-1.8,1.7c-2.4,0.6-4.9-0.4-6.1-2.6c-0.6-1.2-0.6-2.5,0-3.7
				c1.9-3.7,4.3-6.6,8-7.9c6-2.1,13.3,0.9,17.5,8.7l0.1,0.1c4.1,7.5,0.8,11.8-3.4,14.6l0.4,1.1c0.6,1.5,0.3,3.1-1,3.5L85.8,196.4z
				 M87.7,200.1c2.3-0.7,5,0.9,6.4,3.4l0.1,0.1c1.3,2.6,0.6,5-1.6,5.8s-5-0.6-6.4-3.3l-0.1-0.1C84.7,203.4,85.4,200.8,87.7,200.1z"
				/>
			<path class="st1" d="M143.5,241.1c1.7,1.4-12.8-19-16.2-37.6c-1.3-6.8-2.1-15-0.6-19.3c0.2-0.7-0.2-1.5-0.9-1.7
				c-0.4-0.1-0.8-0.1-1.1,0.1c-3.2,1.8-7.1,5.3-8.9,9.3c-6.3,14,4.6,44.2,4.6,44.2L143.5,241.1z"/>
		</g>
	</g>
</g>
</svg>
