<svg xmlns="http://www.w3.org/2000/svg" width="24" height="24" viewBox="0 0 24 24">
  <path fill="#858C99" fill-rule="evenodd" d="M4,10 C4,6.691 6.691,4 10,4 C13.309,4 16,6.691 16,10 C16,13.309 13.309,16 10,16 C6.691,16 4,13.309 4,10 M21.707,20.293 L16.312,14.897 C17.365,13.543 18,11.846 18,10 C18,5.589 14.411,2 10,2 C5.589,2 2,5.589 2,10 C2,14.411 5.589,18 10,18 C11.846,18 13.543,17.365 14.897,16.312 L20.293,21.707 C20.488,21.902 20.744,22 21,22 C21.256,22 21.512,21.902 21.707,21.707 C22.098,21.316 22.098,20.684 21.707,20.293"/>
</svg>
