<svg xmlns="http://www.w3.org/2000/svg" width="24" height="24" viewBox="0 0 24 24">
  <path fill="#0074E8" fill-rule="evenodd" d="M4.07675,12 C5.63675,15.678 9.16075,17 11.99975,17 C14.83975,17 18.36375,15.678 19.92375,12 C18.36375,8.322 14.83975,7 11.99975,7 C9.16075,7 5.63675,8.322 4.07675,12 M11.99975,19 C7.47875,19 3.57775,16.391 2.06375,12.352 C1.97875,12.125 1.97875,11.875 2.06375,11.648 C3.57775,7.609 7.47875,5 11.99975,5 C16.52175,5 20.42175,7.609 21.93675,11.648 C22.02075,11.875 22.02075,12.125 21.93675,12.352 C20.42175,16.391 16.52175,19 11.99975,19 M14,12 C14,13.1046667 13.1046667,14 12,14 C10.8953333,14 10,13.1046667 10,12 C10,10.8953333 10.8953333,10 12,10 C13.1046667,10 14,10.8953333 14,12"/>
</svg>
