<svg xmlns="http://www.w3.org/2000/svg" viewBox="0 0 792.37 698.23">
  <defs>
    <style>
      .cls-1 {
        fill: #f7f7f7;
      }

      .cls-1, .cls-2 {
        fill-rule: evenodd;
      }

      .cls-2 {
        fill: #f9f9f9;
      }

      .cls-3 {
        fill: #efefef;
      }

      .cls-4 {
        fill: #101e1e;
      }

      .cls-5 {
        fill: #1657ea;
      }

      .cls-6 {
        fill: #063397;
      }

      .cls-7 {
        fill: #3c4859;
      }

      .cls-8 {
        fill: #e0bea4;
      }

      .cls-9 {
        fill: #ffe88e;
      }
    </style>
  </defs>
  <title>ticketing-magic-carpet-lt</title>
  <g id="Layer_2" data-name="Layer 2">
    <g id="Layer_1-2" data-name="Layer 1">
      <g>
        <g id="Layer_2-2" data-name="Layer 2-2">
          <path class="cls-1" d="M761.19,428.4c-29.6,65.89-75.32,103.46-117.4,138a545.75,545.75,0,0,1-91.3,60.67,560.71,560.71,0,0,1-57,26.17,552.21,552.21,0,0,1-59.19,19.51c-15.35,4.1-27.65,6.64-35.86,8.2l-5.82,1.11C306,698.92,176.94,721.38,93.79,639.71,20.63,567.85,28.67,460.17,30.47,441.2c1.33-14,11.5-107.53,79.12-165.29A182.72,182.72,0,0,1,125.1,264c37.93-25.92,54.77-16.17,105.3-35.58q7.38-2.83,14.16-5.89a230.22,230.22,0,0,0,46.95-27.92c32.88-25.39,52.21-55.13,74.08-82.26,18.45-22.91,38.71-44,70.44-59C509.57,18.67,618.75,28.69,697,86a239.15,239.15,0,0,1,36.68,33.11c1.6,1.78,3.18,3.6,4.73,5.43C840.21,245.33,768,413.28,761.19,428.4Z"/>
          <path class="cls-2" d="M132.8,90.16c-4.55-31.68,53.33-66,93.21-79C262.09-.59,328.84-9.71,345.54,19.72S326,110.49,275.81,131.42C216.74,156.08,137.75,124.64,132.8,90.16Z"/>
        </g>
        <g id="Layer_1-2-2" data-name="Layer 1-2">
          <path class="cls-3" d="M181.25,494.18c15.1,1.53,17.39-96.52,100.68-142.13,35.36-19.36,62.69-4.18,64.56-50.35.66-16-86.39-57.4-142-26.07C123.09,321.44,163.74,492.4,181.25,494.18Z"/>
          <path class="cls-3" d="M546.68,601.32c4.39,11.87,78.69-22.33,143.38,23.36,27.46,19.39,26.1,45.43,61.38,29.92,12.24-5.38,11.35-85.76-32.51-116C654.8,494.45,541.6,587.54,546.68,601.32Z"/>
          <path class="cls-3" d="M102.19,419.35c-3.88,3.86-27.11-12.27-63.23-9.11-15.33,1.34-26.14-1.79-36.23-18.86-10-16.9,8.92-38.44,33.29-40.26C71.64,348.45,106.69,414.87,102.19,419.35Z"/>
          <path class="cls-4" d="M538.6,369.73a312.47,312.47,0,0,0-49.29,2.83c-2.3-27.73-23-66.26-23-66.26l-62.47,62.29a43.4,43.4,0,0,0-9.7,16.69l-4.24,13.65a130.94,130.94,0,0,0-69.58,71.4c11.49-40.88,26.9-94.28,31.38-102.65,15.3-28.6,77.53-97,77.53-97l61.11-27.34S518.44,252,538.6,369.73Z"/>
          <path class="cls-5" d="M92.24,504.4S141.77,617,207.39,607.33,384.29,543,384.29,543l-69.47-54.68s-31.12,12.3-72.46,26.32c8.13,11.63,6.84,25.79-13.1,33.51-27,10.43-46.32-4.51-55.32-15.92C132.24,531.93,92.24,504.4,92.24,504.4Z"/>
          <path class="cls-6" d="M194.83,607.78s73.67-5.6,92.33-60.92,50.17-124.8,96.49-137.66,104.85-15.44,157-14.8,167.68,27.88,214.64,77.41c-63-23.8-97.78-39.88-123.94-18-17,14.21-33.44,57.89-62,83.39-17.23,15.38-33.72,27.11-46.06,28.32-32.81,3.22-73.15-3.6-108.1,5.42C330.63,592.75,263.66,618.71,194.83,607.78Z"/>
          <path class="cls-5" d="M766.74,490.06c-33-6.81-61.9-18.85-96.55-25.43C660,434.73,631.3,432.8,613,432.8c-19.3,0-41.81,10.3-36.74,31.06Q567,465.39,557,467.54c-67.68,14.85-103.57,35.38-103.57,35.38s-27.59-75.26-72.05-76.57c-17.84-.53-38.4,10.85-61,43.8l-.13.18.23-.56a130.94,130.94,0,0,1,69.58-71.4A86.1,86.1,0,0,1,402.43,394s37.64-15.43,87.11-22a312.47,312.47,0,0,1,49.29-2.83,247.3,247.3,0,0,1,26.78,2.09C646.67,382.2,729.43,399.57,766.74,490.06Z"/>
          <path class="cls-7" d="M637.34,176.82q-24.15.6-83.85,13.33a56.19,56.19,0,0,1-31.13-2.27l-46.33-17a26.5,26.5,0,0,1,.24,3.56c0,17.8,13.27,56.9,18.83,72.5,1.3,3.65-2.93,6.67-2.93,6.67A80,80,0,0,1,463,267.51l-29.36,7.29a4.5,4.5,0,0,1-5.7-2.85,4.1,4.1,0,0,1-.21-1,123.88,123.88,0,0,0-4.88-22.6c-4.71-15.7-28.57-38.43-37.31-46.35L330,274.5a56.1,56.1,0,0,1-25.09,18.57q-57.21,21.18-78,33.59l-7.14-16.43q19.24-8.36,72.59-36A56.67,56.67,0,0,0,311.64,258l18.54-24.85,50.25-69.66c8.36-11.58,37.95-26.37,52.1-32.16,3.74-1.53,8.56-.81,13.63,1.49a15.82,15.82,0,0,1,3.39.89L500.1,153l29,11.07a56.5,56.5,0,0,0,25,3.48q59.89-5.24,80.57-8.44Z"/>
          <path class="cls-8" d="M407.65,135.41A32.28,32.28,0,0,0,430.75,96v0l-6.53-25a32.29,32.29,0,0,0-62.58,16c0,.13.07.26.1.38l6.53,25a32.25,32.25,0,0,0,39.35,23.09Z"/>
          <path class="cls-9" d="M393.45,62.93a80.67,80.67,0,0,1-17,6.82A34.48,34.48,0,0,1,379.31,78a48.73,48.73,0,0,1,1,9,7.47,7.47,0,0,0-6.05-1.71,9.67,9.67,0,0,0-7.41,11.49v0c1.34,6.19,5.88,9.9,11.18,9.13-2.75,10-7.76,18.21-14.26,19.62-12.32,2.67-24.65-11.9-28.49-29.61-.14-.62-.26-1.25-.37-1.87-11.09,11.77-17.32,31.59-34.56,35.33-23.46,5.09-43.05-40.22-10.27-47.33,22.29-4.83,34-4,44.47-1.2-3-29,35.67-37.69,44.8-40.65C415,28.79,401.67,60.67,393.45,62.93Z"/>
          <path class="cls-8" d="M234.41,322.52a12.27,12.27,0,0,0-1.33,2.6c-4.46,10.31-7.08,30.56-13.33,30.89s-5.85-14.72-18.4-14.05-27.27,6.58-33.13-8.2,29.5-11.71,44.23-17.51c2.17-.89,5-3.12,8.31-6.75Z"/>
          <path class="cls-8" d="M628.7,175.84a34.92,34.92,0,0,1,3.88,2.16c9.28,6.33,22.33,22,27.79,19s-2.93-15.57,8-21.72,26.56-9,23.6-24.65-31.19,5.89-46.74,8.87c-2.31.41-5.86,0-10.63-1.26Z"/>
          <path class="cls-8" d="M383.86,129.59l15.51,23.78a6.48,6.48,0,0,0,3,2.21l8.78,3.18a6.42,6.42,0,0,0,8.2-3.9l0-.1,3.22-9.1a6.7,6.7,0,0,0-2.06-7.41L406.2,125a6.36,6.36,0,0,0-6.78-.79l-12.2-.94C383.5,125.06,381.36,126.25,383.86,129.59Z"/>
          <path class="cls-9" d="M368.34,51.88S394.9,40,401,40.6s22.19,3.22,30.23,21.55-.32,31.2-.32,31.2S420,65.69,417.74,62.15,403.27,56,398.12,53.79,368.34,51.88,368.34,51.88Z"/>
        </g>
      </g>
    </g>
  </g>
</svg>
