<svg xmlns="http://www.w3.org/2000/svg" width="24" height="24" viewBox="0 0 24 24">
  <path fill="#3DDC97" fill-rule="evenodd" d="M12,20 C16.418278,20 20,16.418278 20,12 C20,7.581722 16.418278,4 12,4 C7.581722,4 4,7.581722 4,12 C4,16.418278 7.581722,20 12,20 Z M12,22 C6.4771525,22 2,17.5228475 2,12 C2,6.4771525 6.4771525,2 12,2 C17.5228475,2 22,6.4771525 22,12 C22,17.5228475 17.5228475,22 12,22 Z M13,12 C13,12.552 12.553,13 12,13 C11.447,13 11,12.552 11,12 L11,8 C11,7.448 11.447,7 12,7 C12.553,7 13,7.448 13,8 L13,12 Z M12,17 C11.447,17 11,16.552 11,16 C11,15.448 11.447,15 12,15 C12.553,15 13,15.448 13,16 C13,16.552 12.553,17 12,17 L12,17 Z"/>
</svg>
