<svg xmlns="http://www.w3.org/2000/svg" viewBox="0 0 406.74 372">
  <defs>
    <style>
      .cls-1 {
        fill: #f7f7f7;
      }

      .cls-2 {
        fill: #c9a675;
      }

      .cls-3 {
        fill: #fff;
      }

      .cls-4 {
        fill: #efeeed;
      }

      .cls-5 {
        fill: #451702;
      }

      .cls-16, .cls-5, .cls-7 {
        fill-rule: evenodd;
      }

      .cls-6 {
        fill: #d3d2d1;
      }

      .cls-7 {
        fill: #dcb478;
      }

      .cls-8 {
        fill: #ffd301;
      }

      .cls-9 {
        fill: #f2f2f2;
      }

      .cls-10 {
        fill: #ad916c;
      }

      .cls-11 {
        fill: #43169D;
      }

      .cls-12, .cls-16 {
        fill: #ddb78e;
      }

      .cls-13 {
        fill: #dbdbdb;
      }

      .cls-14 {
        fill: #ccc;
      }

      .cls-15 {
        fill: #606060;
      }

      .cls-17 {
        fill: #c6a27f;
      }

      .cls-18 {
        fill: #5130B7;
      }

      .cls-19 {
        fill: #b08967;
      }

      .cls-20 {
        fill: #063397;
      }

      .cls-21 {
        fill: #101e1e;
      }

      .cls-22 {
        fill: #7c5f4a;
      }

      .cls-23 {
        fill: #967659;
      }

      .cls-24 {
        fill: #1657ea;
      }
    </style>
  </defs>
  <title>welcome-lt_2</title>
  <g id="Layer_2" data-name="Layer 2">
    <g id="Layer_2-2" data-name="Layer 2">
      <path class="cls-1" d="M322.69,94.17c-21.9-5.88-42.77-57.28,7.2-40.88S378.58,109.15,322.69,94.17Z"/>
      <path class="cls-1" d="M318.12,281.49a9.93,9.93,0,0,1-1.22.47c-14.21,5.29-33.61,10.54-55.8,14.81-15.3,3-31.94,5.44-49.1,7.14q-3.65.36-7.32.68c-10.57.91-21.3,1.51-32,1.72-2.59.07-5.18.1-7.76.11-3.31,0-6.61,0-9.9-.08-7-.14-14-.46-20.91-1q-6-.45-11.78-1.1-7.6-.87-15-2.11c-3-.51-6-1.06-8.91-1.67q-8.23-1.73-16-4c-22.27-6.57-38.73-19-53.51-31.67C7.4,246.37.31,205.51.4,189.37c.31-55.32,56-73,84.44-115.38,7.4-11,17.5-19.42,26.93-26a80.74,80.74,0,0,1,7.46-4.69c13.61-7.54,31-9.67,49.65-9.57,56.52.31,65.47,44.53,87.52,63.68,38,33,81.76,21.76,103,55C382.4,188.37,363.4,258.37,318.12,281.49Z"/>
      <path class="cls-1" d="M39.4,89c-5.88,14.51-51,27-35-6S54.4,52,39.4,89Z"/>
    </g>
    <g id="Layer_1-2" data-name="Layer 1">
      <g>
        <path class="cls-2" d="M10.23,166.91c0,3.35-1.53,28,.36,27.77,2.07-.26,19-5.11,18.23-7.18-6-15.36-5.83-21.62-1.68-26.6,5.43-6.49,7.79-16.3,5.64-18.94s-8,3.14-8,3.14S15.57,123.35,4,126c-4.44,1-4.92,14-2.77,20.13C4.68,155.92,10.18,162.44,10.23,166.91Z"/>
        <path class="cls-3" d="M85.5,153c-12.33,1.31-54.14,39.87-54.14,39.87l-6.13-18s-5,13.51-9.31,17.34c-6.07,5.38-6.05-16.38-6.05-16.38s-7.17,10.36-4.45,21,11.35,24.25,14.19,25.43,23.21-1.93,37.45-14.44C75.94,191.23,90,166.41,90,166.41S89,152.6,85.5,153Z"/>
        <path class="cls-4" d="M11.79,197c2.73,1.5,4.61-4.89,4.61-4.89s.22-.07-2.22-1.09S10,176.67,10,176.67,5.62,193.6,11.79,197Z"/>
        <path class="cls-5" d="M139.62,79.8a7.59,7.59,0,0,1-.11,2.28,6.22,6.22,0,0,1-.35,1.11c-.08.18-.16.36-.25.54a2.16,2.16,0,0,0-.18.3c-.09.26-.17.09,0,.38a2.33,2.33,0,0,0,.26.38l-.06.15c-.07.24,0,.24.13.46a8.45,8.45,0,0,1,.63,1.14,12.24,12.24,0,0,1,.67,8,9.56,9.56,0,0,1-4.22,6,7.82,7.82,0,0,1-2.75,1c-.09,0-.35,0-.42.07a2.43,2.43,0,0,0,0,.49,8.28,8.28,0,0,1-1.5,4,7.82,7.82,0,0,1-3.24,2.54c-.25.11-.34.12-.47.34a5.14,5.14,0,0,0-.22.59,9.17,9.17,0,0,1-.49,1.16,11.9,11.9,0,0,1-1.37,2.2,16.92,16.92,0,0,1-1.2,1.36l-.63-.1c-.2,0-.87-.28-1-.2s-.38.7-.5.88-.22.33-.34.49a10,10,0,0,1-.9,1,4.28,4.28,0,0,1-1.85,0,10.68,10.68,0,0,1-1.88-.75c-.06.18-.3.35-.42.5a9.19,9.19,0,0,0-.52.85,5.65,5.65,0,0,1-1.51,1.61,11,11,0,0,1-2.58,1.48,8.4,8.4,0,0,1-3.65-.4,17.68,17.68,0,0,1-1.68-.72c-.29-.14-.57-.3-.85-.46l-.49-.31c-.28-.19-.27-.28-.49,0a5.48,5.48,0,0,1-3.21,2,7.71,7.71,0,0,1-2.3.08,4.4,4.4,0,0,0-1.17-.19c-.24.08-.63.63-.85.81a8.4,8.4,0,0,1-4.06,1.81,10.81,10.81,0,0,1-4.66-.34,5.71,5.71,0,0,1-2-1c-.27-.2-.51-.42-.8-.6s-.44-.17-.57-.32A9.85,9.85,0,0,1,84,121.78a4.14,4.14,0,0,1-2.48.72,10,10,0,0,1-4.79-1.61,11.72,11.72,0,0,1-2.08-1.55,10.7,10.7,0,0,1-.88-.9c-.14-.15-.26-.35-.41-.48s-.29-.13-.57-.14a7.9,7.9,0,0,1-3.93-1.2A8.33,8.33,0,0,1,66,113.45a1.64,1.64,0,0,0-.21-.44c-.08,0-.32.07-.42.09a7,7,0,0,1-1,.14,8.07,8.07,0,0,1-1.9-.07,9.54,9.54,0,0,1-6.09-4,12.41,12.41,0,0,1-2.24-6c0-.13.06-.26.1-.39.11-.45.34-.92.41-1.38s0-.15-.14-.36-.19-.14-.27-.21,0,0-.05-.05c0-.18.06-.36.1-.55s.1-.27,0-.47-.43-.42-.62-.63A11.5,11.5,0,0,1,52,96.77l0-.09a15,15,0,0,1-.16-4.22,12.51,12.51,0,0,1,.58-2.91c.1-.28.26-.57.34-.87s0-.25-.15-.48A9.66,9.66,0,0,1,51.88,87a13.15,13.15,0,0,1-1-8.44,10.2,10.2,0,0,1,4.27-6.52A8,8,0,0,1,57,71.18a9.82,9.82,0,0,1,1.06-.3c.1,0,.38,0,.45-.08a2.94,2.94,0,0,0,0-.52A8.9,8.9,0,0,1,60,66a8.33,8.33,0,0,1,3.35-2.83c.26-.13.36-.14.49-.38a4.47,4.47,0,0,0,.2-.65,13.24,13.24,0,0,1,.48-1.24,12.29,12.29,0,0,1,1.38-2.39,10.78,10.78,0,0,1,4-3.6,4.57,4.57,0,0,1,2.73-.35,11.14,11.14,0,0,1,2,.73c.06-.2.3-.39.42-.56a10.28,10.28,0,0,0,.53-.91A6.14,6.14,0,0,1,77.09,52a11.64,11.64,0,0,1,4.13-2.21l.27.16.52.36c.28.21.27.3.51,0a6.59,6.59,0,0,1,1-.92,8.52,8.52,0,0,1,2.7.34c.29.09.91.46,1.19.43s.81-.54,1-.67a7.92,7.92,0,0,1,2.27-.9,5.85,5.85,0,0,1,4,.58c.32.17.28.08.47-.22l.35-.51q.3-.42.63-.81c.43-.49.88-1,1.35-1.41l.22-.19a12.88,12.88,0,0,1,2.23.51,6.22,6.22,0,0,1,2.08,1.1c.27.22.53.46.82.66s.47.2.59.37a10.93,10.93,0,0,1,1.63-1.42,4.55,4.55,0,0,1,2.67-.66,10.81,10.81,0,0,1,5,1.9,13.15,13.15,0,0,1,2.15,1.73q.47.46.9,1a5.3,5.3,0,0,0,.42.52c.21.18.31.16.6.18A8.34,8.34,0,0,1,121,53.39a8.86,8.86,0,0,1,2.91,3.47,2.67,2.67,0,0,0,.21.48c.09,0,.35-.06.45-.08a9.81,9.81,0,0,1,1.09-.11,8.11,8.11,0,0,1,2,.16A10.2,10.2,0,0,1,134,61.83a13,13,0,0,1,2.13,8.23,8,8,0,0,1-.24,1.37c-.07.27-.11.29,0,.5s.44.46.63.69a12.36,12.36,0,0,1,1.6,2.5A14.22,14.22,0,0,1,139.62,79.8Z"/>
        <path class="cls-6" d="M89.71,149.28s14.24-7.6,18.75-9.79A55.19,55.19,0,0,1,119.89,136l7.61,9-17.14,30.8L95.5,177.73,88,153.05Z"/>
        <path class="cls-7" d="M90.47,166.74l8.82,4.58,14.87-8.1,8.38-17.86-14.82-21.75c2.58,10.42-4.91,6.89-15,11.42,0,0,2.33,14.59,2.31,14.6a23.06,23.06,0,0,1-.11,4.89A39.16,39.16,0,0,1,90.47,166.74Z"/>
        <g>
          <path class="cls-8" d="M128,141.19s-10,33.18-13.06,50.42c-.62,3.47-3.43,8-4.5,5.65-5.27-11.58-20.87-32.85-25.9-39.59,2.46.55,8.48.93,22.1-2.82C124.73,149.87,123.16,141.33,128,141.19Z"/>
          <path class="cls-3" d="M172.44,301.51s0-.08,0-.14A.76.76,0,0,1,172.44,301.51Z"/>
          <path class="cls-3" d="M172.68,306.31c-2.59.07-5.18.1-7.76.11-3.31,0-6.61,0-9.9-.08-7-.14-14-.46-20.91-1q-6-.45-11.78-1.1-7.6-.87-15-2.11c-3-.51-6-1.06-8.91-1.67q-8.23-1.73-16-4c-2.27-23.82-5-59.65-6.78-73.16-1.55-11.6-2.93-22.31-3.94-30.86-1.26-10.53-2-17.78-1.74-19.35.46-3.42,4.34-8,8.49-12,2.17-2.08,4.41-4,6.29-5.56.83-.68,1.58-1.29,2.23-1.79l1-.79h0l1.28-.95c-.06.15-.31,1,1.06,1.41h0l1.6,2.6.49.8.52.85c.25.42.52.87.81,1.33h0l.93,1.55,1,1.63.22.37c.84,1.42,1.72,2.93,2.61,4.47.67,1.17,1.35,2.36,2,3.56l.85,1.52.83,1.51.27.5c.46.85.91,1.68,1.34,2.51.23.43.45.85.66,1.27,1.52,2.95,2.83,5.7,3.74,8a80.65,80.65,0,0,1,2.7,9.26,114,114,0,0,1,0-13.64c.29-2.74.87-6.1,1.63-9.74h0c.67-3.29,1.49-6.81,2.35-10.28a0,0,0,0,1,0,0c1-4,2-8,3-11.5.88-3.2,1.67-6,2.26-8h0c.63-2.19,1-3.5,1-3.5h.7c.84,0,2.2,0,3.92.09a51.27,51.27,0,0,1,15.65,3.25c8,3.14,16,9.23,19.21,21,3.65,13.36,6.69,50.76,8.76,83.36C170.35,259.92,171.81,288.72,172.68,306.31Z"/>
          <path class="cls-9" d="M128.49,167.51c-.77,1.13-8.08,11.81-12.35,18.27-1.59,2.4-2.76,4.22-3,4.75a30.68,30.68,0,0,0,0,5.74c.13,3,.37,6.93.67,11.42.14,2.2.31,4.54.48,6.95s.35,4.88.54,7.38c0,.13,0,.26,0,.39.25,3.45.66,8.8,1.15,15.25.62,8.2,1.39,18.18,2.17,28.26.58,7.65,1.18,15.36,1.72,22.4l-2.06-.46c-.53-6.56-1.12-13.8-1.72-21.22-.79-9.86-1.6-20-2.33-29.37-.66-8.56-1.25-16.41-1.69-22.66,0-.17,0-.33,0-.49-.22-3.1-.4-5.78-.53-8-.18-2.89-.33-5.67-.45-8.28,0-.93-.08-1.83-.11-2.71a112.35,112.35,0,0,1,0-13.64c.29-2.74.88-6.11,1.63-9.75.68-3.29,1.49-6.81,2.35-10.28,1-4,2.05-8,3-11.53.87-3.21,1.66-6,2.25-8,.63-2.19,1-3.5,1-3.5L119.89,136s4.73,1.35,5.88,2.42l.1.1a17,17,0,0,1,1.46,2.75l.41.89h0c1.82,4.07,4.12,9.94,4.12,9.94l-8.32,10.51S129.54,166,128.49,167.51Z"/>
          <path class="cls-9" d="M128,234.28c.82.59,15.29,15.06,22.53,14.69,1.82-.09-1.21-2.93-1.21-2.93l-16.78-10.47Z"/>
          <path class="cls-9" d="M113.8,207.69c.29,4.51.66,9.56,1,14.72-1.17-5.81-2.33-11.5-3.33-16.24-1.45-6.83-2.59-11.69-2.94-12.09-1.3-1.44-17.27-14.86-18.53-15.92s3-5.33,3-5.33l-9.57-7s.65-6.4,1.28-10.28a12.28,12.28,0,0,1,.65-2.8c.72-1.18,4.42-3.45,4.42-3.45l-.57,2.38s.4.63,1.08,1.74h0c3.44,5.54,14.12,23,17.87,32.46a83.2,83.2,0,0,1,2.69,9.26C111.85,198.82,112.82,203.1,113.8,207.69Z"/>
          <circle class="cls-9" cx="118.36" cy="206.56" r="1.76"/>
          <circle class="cls-9" cx="118.25" cy="215.53" r="1.76"/>
          <circle class="cls-9" cx="118.15" cy="224.5" r="1.76"/>
          <circle class="cls-9" cx="118.55" cy="233.82" r="1.76"/>
          <circle class="cls-9" cx="119.31" cy="242.63" r="1.76"/>
          <circle class="cls-9" cx="119.72" cy="251.95" r="1.76"/>
        </g>
        <path class="cls-7" d="M74.45,98.21a21,21,0,0,0-.06,3.64l1.2,18a22.58,22.58,0,0,0,24,21l.26,0a22.53,22.53,0,0,0,20-16.63c0-.11.06-.22.1-.34a22.81,22.81,0,0,0,.63-7l-1.2-18a22.57,22.57,0,0,0-45-.64Z"/>
        <path class="cls-5" d="M135.71,71.29a5,5,0,0,1-1.55,2.32,5.23,5.23,0,0,1-1.22.74c-.16.07-.22,0-.24.19a1.23,1.23,0,0,0,.1.41,6.44,6.44,0,0,1,.15,1,7.67,7.67,0,0,1-.47,3.35,9.53,9.53,0,0,1-3.95,4.91,8.52,8.52,0,0,1-3.29,1.08,13.55,13.55,0,0,1-1.8.08c-.19,0-.83-.13-1,0s-.28.66-.36.83a10.09,10.09,0,0,1-4.83,4.47c-2.3,1.09-4.55,2-7.14,1.58-.55-.11-1.08-.24-1.62-.4l-.83-.29-.48-.21c-.27-.13-.28-.21-.45,0A5.26,5.26,0,0,1,104,93.51a7.86,7.86,0,0,1-2.09.38,4.43,4.43,0,0,0-1.09,0c-.21.1-.51.64-.7.82a8,8,0,0,1-3.51,2.13,10.6,10.6,0,0,1-4.3.33,5.39,5.39,0,0,1-1.93-.57c-.27-.14-.52-.3-.8-.42s-.42-.08-.55-.2a9.66,9.66,0,0,1-1.21,1.41,4.11,4.11,0,0,1-2.19,1,9.43,9.43,0,0,1-4.56-.77A10.76,10.76,0,0,1,79,96.5c-.31-.21-.61-.43-.91-.67a3.73,3.73,0,0,0-.43-.36c-.2-.12-.28-.08-.53,0a7.47,7.47,0,0,1-3.74-.52,7.26,7.26,0,0,1-3-2.39c0-.07-.18-.34-.24-.36s-.29.1-.37.14c-.31.1-.61.19-.93.26a7.89,7.89,0,0,1-1.75.19,8.74,8.74,0,0,1-6-2.71,10.3,10.3,0,0,1-2.92-6.41,6.31,6.31,0,0,1,0-1.15c0-.24.06-.26-.1-.41s-.44-.31-.63-.47l-.18-.15C70,76.27,85.45,73.82,92.56,72.7,105,70.72,122.34,68,135.71,71.29Z"/>
        <path class="cls-10" d="M109.93,119.54l-3.88,6.08a10.23,10.23,0,0,1-16.46,1.27l-5-6a.44.44,0,0,1,.31-.72l24.71-1.3A.42.42,0,0,1,109.93,119.54Z"/>
      </g>
      <path class="cls-11" d="M297.37,69.06c-8.09.67-24.68-5.39-26.9,14.85S265,133.22,258.4,138s-8,7-8,7l89,26s-8.42-17.45-10-29.63-.67-60.32-3.25-64.1S297.37,69.06,297.37,69.06Z"/>
      <path class="cls-12" d="M397.4,167.37c0,3.9,4.28,33.19,2.08,32.95-2.41-.26-22.24-5.49-21.35-7.92,6.6-18,6.26-25.25,1.32-30.93-6.45-7.42-8.48-18-6.05-21.1s9,3,9,3,7.5-21.83,21-19c5.18,1.09,3.36,12.83,1,20C400.64,155.8,397.35,162.18,397.4,167.37Z"/>
      <path class="cls-13" d="M311.47,153.64c14.35,1.23,63.83,45,63.83,45l6.7-21.06s6.14,15.58,11.23,19.92c7.18,6.11,5.17-19.16,5.17-19.16s10,11.86,7.14,24.31-12.61,28.44-15.89,29.88-27-1.7-43.84-15.89c-22.32-18.81-39.23-47.31-39.23-47.31S307.37,153.29,311.47,153.64Z"/>
      <path class="cls-14" d="M398.14,203c-3.13,1.79-5.47-5.57-5.47-5.57s-.26-.09,2.55-1.32,3.18-16.75,3.18-16.75S405.22,199,398.14,203Z"/>
      <path class="cls-15" d="M313.29,148.37s-17.52-6.67-23-8.54-13.68-2.35-13.68-2.35L269.12,149l24.26,33h17.4l5-29.54Z"/>
      <path class="cls-7" d="M315,168.61l-9.49,6.57L287.16,168l-12.28-19.37,13.9-27.23c-1.44,12.38,6.67,7.21,19,11,0,0-.55,17.16-.54,17.17a27.64,27.64,0,0,0,.85,5.62A45.46,45.46,0,0,0,315,168.61Z"/>
      <path class="cls-3" d="M210.28,326a.71.71,0,0,0,0-.16C210.29,325.88,210.28,325.93,210.28,326Z"/>
      <path class="cls-13" d="M325.3,238.48c-2.26,13.79-4.74,28.65-7.18,43l-1.22.47c-14.21,5.29-33.61,10.54-55.8,14.81-15.3,3-31.94,5.44-49.1,7.14.94-11.66,2.33-28.36,3.61-42.11,3.52-37.79,8.32-81.12,13-96.51,4.15-13.59,13.65-20.39,23-23.77a59.63,59.63,0,0,1,18.28-3.23c2,0,3.59,0,4.57,0,.35,0,.62,0,.81,0,0,0,.41,1.54,1.07,4.11.58,2.28,30.7,14.47,34,14.47.14,0,.24,0,.27-.08,1.78-.51,1.27-1.61,1.27-1.61s.55.42,1.47,1.18,2.2,1.81,3.67,3.11c2.13,1.85,4.67,4.18,7.12,6.67,4.69,4.78,9,10.19,9.45,14.18C334,183.68,330.2,208.52,325.3,238.48Z"/>
      <path class="cls-16" d="M325.28,115.61a26.25,26.25,0,0,1-24.65,24.55h-.3a26,26,0,0,1-19.93-7.78,17.54,17.54,0,0,1-1.24-1.35h0c-4.37-6.65-5.93-32.22-5.93-32.22l-1.34-.17-.24-4a26.23,26.23,0,0,1,51.78-7.31,24.91,24.91,0,0,1,.6,4.18l1.26,21A28.47,28.47,0,0,1,325.28,115.61Z"/>
      <path class="cls-16" d="M279.15,131a25.86,25.86,0,0,1-4.33-7.1c-.07-.12-.11-.24-.17-.37a26.36,26.36,0,0,1-1.76-8l-1-16.9,1.34.17S274.78,124.37,279.15,131Z"/>
      <path class="cls-17" d="M285.64,117.05l5.37,6.44a11.88,11.88,0,0,0,19.15-.94l4.95-7.65a.51.51,0,0,0-.46-.78L286,116.23A.5.5,0,0,0,285.64,117.05Z"/>
      <path class="cls-11" d="M271.9,98.53C273.81,104,284,80.35,295.68,78.16s27.58,11.12,28.79,14.5,4.93-8.29,1.9-17.85c-3.66-11.54-21.91-18.56-34.83-14.15S264.9,78.48,271.9,98.53Z"/>
      <path class="cls-11" d="M325.25,159.62c-3.31-.76-2.64,7.33-11.72,14.84s-8.65,19.87-22.27,16.76-24.62-31.63-26-37.21c-3.75-15.46-7.6-15.06-7.86-15,.31-.06,12.51-2.41,14-8s.05-32.42.05-32.42l.43,0,1.34.17s1.56,25.57,5.93,32.22h0a5.48,5.48,0,0,0,.67.84,6.91,6.91,0,0,0,.57.51,26,26,0,0,0,19.93,7.78h.3a26.25,26.25,0,0,0,24.65-24.55c.29-.79.45-1.15.45-1.15s-.7,21.53-.92,25.25C324.37,147.17,327.11,160,325.25,159.62Z"/>
      <path class="cls-11" d="M257.4,139h0Z"/>
      <path class="cls-18" d="M301.5,68.15s15.33,2.64,18.06,5.1,5.93,6.68,5.28,7.79S321.43,75.33,315,73,301.42,70.45,301.5,68.15Z"/>
      <path class="cls-18" d="M273.33,125.15s.6,9.24-1.86,12a10.43,10.43,0,0,1-2.82,2.13.62.62,0,0,0,.39,1.16c2.13-.32,4.3-.9,4.65-2C274.4,136.15,275,126.4,273.33,125.15Z"/>
      <path class="cls-18" d="M317.4,144a.79.79,0,0,0-1.37-.78,89.49,89.49,0,0,0-7.68,12.22c-2.45,5.2-10.07,24.14-12.39,24.58-1.37.25-4-1.24-6-2.52a.34.34,0,0,0-.42.52c1.87,1.88,4.69,4.2,6.85,3.67,3.51-.86,11.71-17.11,13.48-23.28C311.16,154,315.33,149,317.4,144Z"/>
      <path class="cls-18" d="M281.24,145.5a.55.55,0,0,1,.86-.67A17.33,17.33,0,0,0,288,149a56.48,56.48,0,0,0,7.11,1.79.33.33,0,0,1-.05.65c-3.07.06-7.48,0-8.89-.83A16.68,16.68,0,0,1,281.24,145.5Z"/>
      <path class="cls-18" d="M279.46,148c0-.6.66-.78.78-.2,1.28,5.92,3.93,16.26,6.79,17.9,2.14,1.23,5.15,1.05,7.88,1.77.86.22.74,1.78-.13,1.85-3.92.31-9.4-.91-11.19-3.82C280.52,160.45,279.85,153.3,279.46,148Z"/>
      <path class="cls-18" d="M272.43,93.69a.49.49,0,0,0,.88,0c.66-1.22,1.57-3.14,2.13-4.12l3.61-5.24a.24.24,0,0,0-.38-.3,30.1,30.1,0,0,0-3.09,3.25c-.89,1.17-2.53,4.78-3.1,5.67a.75.75,0,0,0-.05.7Z"/>
      <path class="cls-18" d="M272.31,86.66c.24.54.72.47,1,0,1-1.76,1.8-4.19,2.63-5.59l6.17-7.75a.36.36,0,0,0-.57-.44,90.47,90.47,0,0,0-6.11,7c-1.31,1.69-2.22,4.55-3.05,5.83a1,1,0,0,0-.08,1Z"/>
      <g>
        <path class="cls-19" d="M200,150.36c-1.94,1.95-3.88,3-5.83,3.07-2.18.1-6.37-.89-12.54-3-2.06-.68-3.36-3.23-3-5.81l4.59-30.07c.49-3.22,2.69-5.56,5.33-5.68s5,2,5.7,5.2l7,31.12A5.65,5.65,0,0,1,200,150.36Z"/>
        <path class="cls-20" d="M261.1,296.77a547,547,0,0,1-56.42,7.82c-13.13,1.13-26-1.64-39.28-1.59l-3.26-23.71-.16-1.6,47.46-4.79,35.85-3.62,3.39,5.89Z"/>
        <path class="cls-21" d="M154.07,56.68s-3.19,48.83,44.27,41.06,38.2-41.06,38.2-41.06Z"/>
        <path class="cls-19" d="M193.82,130.28a32.06,32.06,0,0,1-32.32-32.6l.32-26.21A33.46,33.46,0,0,1,195,38.53a32.07,32.07,0,0,1,32.3,32.61l-.33,26.21A33.42,33.42,0,0,1,193.82,130.28Z"/>
        <path class="cls-22" d="M216,101.27l-8.43,9a17.44,17.44,0,0,1-28-3.06L173,95.55a.74.74,0,0,1,.75-1.09l41.81,5.59A.72.72,0,0,1,216,101.27Z"/>
        <path class="cls-21" d="M197.81,18.45c-27,5-24.89,16-34.78,18.5-6.12,1.52-16.37,10.47-13.89,19.73,2.31,8.63,13.26,16,24.47,8.63s29.06-21.83,35.95-14.8c7.26,7.4,19.77,31.16,26.65,24.67C265,48.05,231.16,12.29,197.81,18.45Z"/>
        <path class="cls-21" d="M203.88,23.38s45.8-14.79,5.31-22.19S203.88,23.38,203.88,23.38Z"/>
        <path class="cls-23" d="M353.7,169.51c-4.93-8.63-28.36,10.46-28.36,10.46S318,167,316.1,173.8s3.07,15.41-.64,29c0,0-4.25,17.49.11,16.89s17.55-19.33,19.61-22.42C341.36,188,358.62,178.14,353.7,169.51Z"/>
        <path class="cls-24" d="M328.4,206.37c-1.88,8.78-17.42,33.4-31.74,49.15-9.34,10.28-19.12,18-26.49,18-14.14,0-30.68-19.07-37.84-28.29-1.2-1.7-2.37-3.43-3.51-5.16-16.89-25.57-27.29-53.66-28.15-72.07l-1.4-29.77c15.65,10.63,32,29.5,48.07,50.39l.72.94a0,0,0,0,0,0,0c2,3,8,11.75,14.19,19.08l.05.06c5.46,6.47,11,11.79,14.08,10.91,7.25-2.07,35.87-27.29,40-27.29S314.4,213.37,328.4,206.37Z"/>
        <path class="cls-3" d="M252.65,270.07a5,5,0,0,1-4.73,5.2l-96,4.5a4.15,4.15,0,0,1-.7,0,5,5,0,0,1-4.5-4.71,5.51,5.51,0,0,1,0-.7q9.87-105,32.68-135.14c6.18,3,10.4,4.48,12.64,4.38s4.57-1.87,7.22-5.31a1162.34,1162.34,0,0,0,52.89,129.9A4.85,4.85,0,0,1,252.65,270.07Z"/>
        <path class="cls-19" d="M123.49,365.86c-4.84,2.71-10.39-9.47-20.08-4s-19.16,15.82-29.55,6.36S92.78,347.4,102.24,337a12.66,12.66,0,0,0,1.91-3c1.58-6,4.52-6.71,7.71-6.07l1.59.32c3.09.62,7.28,2.75,8.78,9.57C123.18,347.89,128.07,363.29,123.49,365.86Z"/>
        <path class="cls-24" d="M212.56,301.14a12.7,12.7,0,0,1-.6,2.71c-8.74.82-20.39,1.71-33.56,2.15-6.65.22-15.15.07-24.38-.36-3.82-7.39-4.27-16.37-4.92-30.2,0,4.65-4.21,16.76-9.34,29.36-3.33,8.16-7,16.53-10.26,23.21-.77,1.61-1.51,3.12-2.21,4.5a12.74,12.74,0,0,1-13.84,6.75l-1.59-.32a12.76,12.76,0,0,1-10.19-12.07c-.18-5.08-.2-10.66,0-16.62q.1-4.5.38-9.26c3.39-62.69,24.55-156.47,70.8-156.32h.59a12.73,12.73,0,0,1,12.19,9.1l.08.26c14.66,49.78,24.58,91.25,26.94,121.85A136.59,136.59,0,0,1,212.56,301.14Z"/>
      </g>
    </g>
  </g>
</svg>
