<svg xmlns="http://www.w3.org/2000/svg" width="24" height="24" viewBox="0 0 24 24">
  <path fill="#0074E8" fill-rule="evenodd" d="M16.065,13.787 C15.841,13.675 14.746,13.136 14.542,13.061 C14.337,12.987 14.188,12.95 14.04,13.173 C13.891,13.396 13.464,13.898 13.334,14.047 C13.204,14.195 13.074,14.214 12.851,14.102 C12.627,13.991 11.91,13.756 11.058,12.996 C10.395,12.405 9.948,11.676 9.818,11.453 C9.688,11.229 9.804,11.109 9.916,10.998 C10.016,10.898 10.138,10.737 10.25,10.607 C10.362,10.477 10.399,10.384 10.473,10.235 C10.547,10.087 10.51,9.957 10.455,9.845 C10.399,9.733 9.953,8.637 9.767,8.19 C9.586,7.756 9.402,7.814 9.265,7.808 C9.135,7.801 8.987,7.8 8.838,7.8 C8.69,7.8 8.448,7.855 8.244,8.079 C8.04,8.302 7.463,8.841 7.463,9.938 C7.463,11.035 8.262,12.095 8.374,12.243 C8.485,12.392 9.946,14.643 12.182,15.608 C12.714,15.838 13.129,15.975 13.453,16.078 C13.987,16.248 14.473,16.224 14.857,16.166 C15.286,16.102 16.176,15.627 16.362,15.106 C16.547,14.586 16.547,14.14 16.492,14.047 C16.436,13.954 16.288,13.898 16.065,13.787 M11.997,19.339 L11.994,19.339 C10.664,19.339 9.358,18.981 8.219,18.306 L7.949,18.144 L5.142,18.881 L5.891,16.145 L5.714,15.865 C4.972,14.684 4.581,13.32 4.581,11.92 C4.583,7.832 7.91,4.507 12,4.507 C13.981,4.507 15.842,5.279 17.243,6.681 C18.643,8.082 19.414,9.944 19.413001,11.926 C19.412,16.014 16.085,19.339 11.997,19.339 M18.308,5.616 C16.624,3.93 14.383,3.001 11.997,3 C7.079,3 3.077,7.001 3.075,11.919 C3.074,13.491 3.485,15.025 4.265,16.378 L3,21 L7.73,19.76 C9.033,20.471 10.501,20.845 11.994,20.846 L11.997,20.846 C16.915,20.846 20.918,16.844 20.9190008,11.926 C20.92,9.543 19.993,7.302 18.308,5.616"/>
</svg>
